<?xml version="1.0" encoding="UTF-8"?>
<svg xmlns="http://www.w3.org/2000/svg" xmlns:xlink="http://www.w3.org/1999/xlink" viewBox="0 0 967.3 390.91">
  <defs>
    <style>
      .cls-1 {
        fill: url(#WHITE);
      }

      .cls-2 {
        fill: url(#Degradado_sin_nombre_36);
      }

      .cls-3 {
        fill: url(#RED-2);
      }

      .cls-4 {
        fill: #fff;
      }

      .cls-5 {
        fill: url(#Degradado_sin_nombre_37);
      }

      .cls-6 {
        fill: url(#YELLOW-2);
      }

      .cls-7 {
        fill: url(#GREEN-2);
      }

      .cls-8 {
        fill: url(#Degradado_sin_nombre_38);
      }
    </style>
    <linearGradient id="Degradado_sin_nombre_38" data-name="Degradado sin nombre 38" x1="889.91" y1="121.58" x2="897.91" y2="118.71" gradientUnits="userSpaceOnUse">
      <stop offset="0" stop-color="#05995d"/>
      <stop offset=".65" stop-color="#0b7742"/>
      <stop offset=".96" stop-color="#0f6535"/>
    </linearGradient>
    <linearGradient id="Degradado_sin_nombre_37" data-name="Degradado sin nombre 37" x1="898.27" y1="119.77" x2="906.81" y2="117.18" gradientUnits="userSpaceOnUse">
      <stop offset="0" stop-color="#df1c20"/>
      <stop offset=".99" stop-color="#9e2416"/>
    </linearGradient>
    <linearGradient id="Degradado_sin_nombre_36" data-name="Degradado sin nombre 36" x1="904.71" y1="119.64" x2="917.85" y2="114.82" gradientUnits="userSpaceOnUse">
      <stop offset=".17" stop-color="#ffea07"/>
      <stop offset=".33" stop-color="#e9d813"/>
      <stop offset=".66" stop-color="#b1aa33"/>
      <stop offset=".75" stop-color="#a09c3d"/>
    </linearGradient>
    <linearGradient id="YELLOW-2" data-name="YELLOW" x1="178.29" y1="280.81" x2="216.15" y2="218.73" gradientUnits="userSpaceOnUse">
      <stop offset="0" stop-color="#ffea07"/>
      <stop offset=".2" stop-color="#fbe609"/>
      <stop offset=".41" stop-color="#efdc10"/>
      <stop offset=".61" stop-color="#dacc1b"/>
      <stop offset=".82" stop-color="#bfb52b"/>
      <stop offset=".99" stop-color="#a09c3d"/>
    </linearGradient>
    <linearGradient id="RED-2" data-name="RED" x1="126.15" y1="186.56" x2="128.05" y2="237.88" gradientUnits="userSpaceOnUse">
      <stop offset="0" stop-color="#df1c20"/>
      <stop offset=".23" stop-color="#da1c1f"/>
      <stop offset=".49" stop-color="#cd1e1d"/>
      <stop offset=".76" stop-color="#b72019"/>
      <stop offset=".99" stop-color="#9e2416"/>
    </linearGradient>
    <linearGradient id="GREEN-2" data-name="GREEN" x1="216.15" y1="116.4" x2="147.35" y2="148.91" gradientUnits="userSpaceOnUse">
      <stop offset="0" stop-color="#05995d"/>
      <stop offset=".3" stop-color="#078c53"/>
      <stop offset=".84" stop-color="#0d6c3a"/>
      <stop offset=".96" stop-color="#0f6535"/>
    </linearGradient>
    <linearGradient id="WHITE" x1="269.93" y1="162.61" x2="233.44" y2="125.36" gradientUnits="userSpaceOnUse">
      <stop offset="0" stop-color="#fff"/>
      <stop offset=".16" stop-color="#fafafa"/>
      <stop offset=".36" stop-color="#ebeeee"/>
      <stop offset=".56" stop-color="#d4d9db"/>
      <stop offset=".78" stop-color="#b3bcbf"/>
      <stop offset=".96" stop-color="#929fa3"/>
    </linearGradient>
  </defs>
  <g id="CENTRO_copia" data-name="CENTRO copia">
    <g>
      <path class="cls-4" d="M412.43,257.12c3.86,0,6.77.16,8.73.47.55.08.78.35.69.82l-.46,2.45c-.09.41-.35.62-.78.62h-9c-3.49,0-5.91.72-7.26,2.17-1.29,1.4-2.33,4.23-3.12,8.5-.86,4.09-.89,6.91-.09,8.47.83,1.5,2.99,2.25,6.48,2.25h8.96c.43,0,.63.19.6.58l-.46,2.45c-.09.49-.44.78-1.06.85-2.3.31-5.25.47-8.87.47-5.67,0-9.28-1.05-10.84-3.15-1.56-2.1-1.79-6.07-.69-11.92.58-3.13,1.25-5.61,2-7.42.75-1.81,1.78-3.29,3.1-4.43,1.32-1.19,2.9-2.02,4.75-2.49,1.85-.47,4.29-.7,7.33-.7Z"/>
      <path class="cls-4" d="M435.3,265.35c4.29,0,7.01.7,8.18,2.1,1.16,1.42,1.36,4.23.6,8.43l-.23,1.17c-.06.39-.21.66-.46.82-.25.16-.67.23-1.29.23h-14.51c-.31,2.02-.15,3.38.46,4.08.58.65,2,.97,4.27.97h7.81c.46,0,.66.19.6.58l-.46,2.41c-.06.36-.32.58-.78.66-2.36.29-5.12.43-8.27.43-1.84,0-3.35-.1-4.52-.31-1.18-.21-2.16-.54-2.94-.99-.78-.45-1.32-1.12-1.61-2-.29-.88-.43-1.92-.41-3.11.02-1.19.19-2.69.53-4.5.83-4.4,2.1-7.33,3.81-8.78,1.71-1.45,4.79-2.17,9.23-2.17ZM434.57,269.43c-2.11,0-3.6.36-4.46,1.09-.89.7-1.53,2.1-1.93,4.19h10.52c.37-2.1.28-3.5-.28-4.19-.55-.72-1.84-1.09-3.86-1.09Z"/>
      <path class="cls-4" d="M461.58,265.35c1.5,0,2.74.04,3.72.12,2.3.18,3.81.66,4.55,1.44,1.25,1.24,1.53,3.79.83,7.65l-2.21,11.88c-.09.39-.38.58-.87.58h-4.13c-.43,0-.63-.19-.6-.58l2.11-11.03c.37-2.1.43-3.62.18-4.58-.09-.44-.37-.75-.83-.93-.67-.31-1.88-.47-3.63-.47h-5.28l-3.17,17.01c-.09.39-.37.58-.83.58h-4.23c-.43,0-.61-.19-.55-.58l3.72-19.84c.03-.16.08-.28.16-.37.08-.09.15-.15.23-.17.08-.03.21-.05.39-.08,2.42-.41,5.89-.62,10.43-.62Z"/>
      <path class="cls-4" d="M480.64,260.49l4.36-.89c.28-.05.47-.03.57.06.11.09.13.25.07.49l-1.01,5.44h4.55c.49,0,.7.19.64.58l-.51,2.45c-.03.42-.31.62-.83.62h-4.55l-2.21,11.85c-.15.85-.06,1.41.28,1.67.34.26,1.07.39,2.21.39h2.02c.25,0,.43.05.55.14.12.09.17.23.14.41l-.46,2.56c-.15.39-.44.62-.87.7-1.1.18-2.2.27-3.31.27h-1.17c-.32,0-.71-.01-1.17-.04-.46-.03-.83-.07-1.1-.14s-.6-.15-.99-.25c-.38-.1-.66-.24-.83-.41-.17-.17-.38-.37-.64-.6-.26-.23-.41-.51-.44-.83-.03-.32-.09-.69-.18-1.09s-.05-.86.14-1.38l2.48-13.24h-2.62c-.46,0-.67-.21-.64-.62l.46-2.45c.06-.39.34-.58.83-.58h2.66l.83-4.47c.09-.34.34-.54.74-.62Z"/>
      <path class="cls-4" d="M501.86,265.35c2.51,0,4.35.14,5.51.43.4.13.58.36.55.7l-.46,2.37c-.03.41-.31.61-.83.58h-4.18c-1.41,0-2.39.14-2.94.43s-.9.84-1.06,1.67l-2.8,14.91c-.06.39-.32.58-.78.58h-4.18c-.43,0-.63-.19-.6-.58l3.03-16.12c.43-2.17,1.58-3.59,3.45-4.23,1.47-.49,3.23-.74,5.28-.74Z"/>
      <path class="cls-4" d="M521.06,265.35c3.55,0,6.09.44,7.62,1.32,1.13.75,1.79,1.89,1.97,3.42.18,1.53.02,3.6-.5,6.21-.8,4.4-2.07,7.33-3.81,8.78-1.69,1.42-4.82,2.14-9.42,2.14-2.36,0-4.2-.16-5.51-.49s-2.35-.89-3.1-1.71-1.11-1.93-1.08-3.34.21-3.2.55-5.38c.83-4.4,2.1-7.33,3.81-8.78,1.78-1.45,4.93-2.17,9.46-2.17ZM513.39,276.3c-.58,2.72-.61,4.54-.09,5.48.55.91,2.02,1.36,4.41,1.36s4-.43,4.82-1.28c.83-.91,1.52-2.76,2.07-5.55.58-2.74.6-4.57.05-5.48-.49-.93-1.95-1.4-4.37-1.4s-4,.44-4.82,1.32c-.83.85-1.52,2.71-2.07,5.55Z"/>
      <path class="cls-4" d="M564.97,257.35h4.18c.49,0,.69.19.6.58l-5.19,27.77c-.09.47-.43.74-1.01.82-3.43.47-6.75.7-9.97.7-4.59,0-7.49-.71-8.68-2.14-1.19-1.45-1.38-4.38-.55-8.78.79-4.35,2.04-7.26,3.72-8.74,1.68-1.48,4.64-2.21,8.87-2.21,2.33,0,4.27.08,5.83.23l1.42-7.65c.06-.39.32-.58.78-.58ZM559.51,282.82l2.53-13.4h-5.05c-2.51,0-4.18.43-5.01,1.28-.83.85-1.52,2.72-2.07,5.59-.58,2.64-.63,4.44-.14,5.4s1.99,1.44,4.5,1.44c1.59,0,3.34-.1,5.24-.31Z"/>
      <path class="cls-4" d="M584.45,265.35c4.29,0,7.01.7,8.18,2.1,1.16,1.42,1.36,4.23.6,8.43l-.23,1.17c-.06.39-.21.66-.46.82-.25.16-.67.23-1.29.23h-14.52c-.31,2.02-.15,3.38.46,4.08.58.65,2.01.97,4.27.97h7.81c.46,0,.66.19.6.58l-.46,2.41c-.06.36-.32.58-.78.66-2.36.29-5.11.43-8.27.43-1.84,0-3.35-.1-4.53-.31-1.18-.21-2.16-.54-2.94-.99s-1.32-1.12-1.61-2-.43-1.92-.41-3.11c.01-1.19.19-2.69.53-4.5.83-4.4,2.1-7.33,3.81-8.78s4.79-2.17,9.23-2.17ZM583.71,269.43c-2.11,0-3.6.36-4.46,1.09-.89.7-1.53,2.1-1.93,4.19h10.52c.37-2.1.28-3.5-.28-4.19-.55-.72-1.84-1.09-3.86-1.09Z"/>
      <path class="cls-4" d="M624.96,257.12c3.86,0,6.77.16,8.73.47.55.08.78.35.69.82l-.46,2.45c-.09.41-.35.62-.78.62h-9c-3.49,0-5.91.72-7.26,2.17-1.29,1.4-2.33,4.23-3.12,8.5-.86,4.09-.89,6.91-.09,8.47.83,1.5,2.99,2.25,6.48,2.25h8.96c.43,0,.63.19.6.58l-.46,2.45c-.09.49-.45.78-1.06.85-2.3.31-5.25.47-8.87.47-5.67,0-9.28-1.05-10.84-3.15-1.56-2.1-1.79-6.07-.69-11.92.58-3.13,1.25-5.61,2-7.42.75-1.81,1.78-3.29,3.1-4.43,1.32-1.19,2.9-2.02,4.75-2.49,1.85-.47,4.29-.7,7.33-.7Z"/>
      <path class="cls-4" d="M646.36,265.35c3.86,0,6.52.5,7.97,1.51,1.45,1.01,1.98,2.63,1.58,4.85l-2.57,13.51c-.03.54-.4.92-1.1,1.13-2.42.57-5.93.85-10.52.85-.98,0-1.83-.02-2.55-.06-.72-.04-1.43-.12-2.14-.23-.71-.12-1.26-.28-1.68-.49-.41-.21-.83-.47-1.24-.8-.41-.32-.67-.71-.78-1.17-.11-.45-.21-.99-.3-1.61s-.03-1.33.18-2.14c.46-2.33,1.47-3.95,3.03-4.85,1.59-.88,3.89-1.32,6.89-1.32h6.66l.37-2.02c.19-1.09-.08-1.88-.78-2.37-.71-.49-1.98-.74-3.81-.74h-7.58c-.24,0-.41-.04-.48-.12-.08-.08-.1-.25-.07-.5l.46-2.33c.03-.34.28-.54.73-.62,2.18-.34,4.75-.5,7.72-.5ZM648.25,282.86l.92-4.93h-6.34c-1.29,0-2.24.19-2.85.58-.61.39-1.01,1.06-1.19,2.02-.21,1.06-.02,1.79.57,2.17.6.39,1.78.58,3.56.58,2.14,0,3.92-.14,5.33-.43Z"/>
      <path class="cls-4" d="M673.37,265.35c4.62,0,7.53.72,8.73,2.17,1.22,1.42,1.42,4.29.6,8.58-.83,4.43-2.08,7.39-3.77,8.89-1.68,1.48-4.64,2.21-8.87,2.21-2.33,0-4.26-.08-5.79-.23l-1.38,7.18c-.03.41-.29.62-.78.62h-4.18c-.43,0-.63-.21-.6-.62l5.14-27.34c.09-.44.41-.7.96-.78,3.43-.47,6.74-.7,9.92-.7ZM672.82,269.43h-5.28l-2.53,13.44c1.56.16,3.22.23,4.96.23,2.51,0,4.18-.43,5.01-1.28.86-.83,1.56-2.68,2.11-5.55.58-2.67.63-4.47.14-5.4-.49-.96-1.96-1.44-4.41-1.44Z"/>
      <path class="cls-4" d="M698.54,265.35c3.86,0,6.52.5,7.97,1.51,1.45,1.01,1.98,2.63,1.58,4.85l-2.57,13.51c-.03.54-.4.92-1.1,1.13-2.42.57-5.93.85-10.52.85-.98,0-1.83-.02-2.55-.06-.72-.04-1.43-.12-2.14-.23-.71-.12-1.26-.28-1.68-.49-.41-.21-.83-.47-1.24-.8-.41-.32-.67-.71-.78-1.17-.11-.45-.21-.99-.3-1.61s-.03-1.33.18-2.14c.46-2.33,1.47-3.95,3.03-4.85,1.59-.88,3.89-1.32,6.89-1.32h6.66l.37-2.02c.19-1.09-.08-1.88-.78-2.37-.71-.49-1.98-.74-3.81-.74h-7.58c-.24,0-.41-.04-.48-.12-.08-.08-.1-.25-.07-.5l.46-2.33c.03-.34.28-.54.73-.62,2.18-.34,4.75-.5,7.72-.5ZM700.43,282.86l.92-4.93h-6.34c-1.29,0-2.24.19-2.85.58-.61.39-1.01,1.06-1.19,2.02-.21,1.06-.02,1.79.57,2.17.6.39,1.78.58,3.56.58,2.14,0,3.92-.14,5.33-.43Z"/>
      <path class="cls-4" d="M725.37,265.35c2.82,0,5.21.14,7.16.43.46.08.64.31.55.7l-.46,2.37c-.06.39-.34.58-.83.58h-7.21c-2.39,0-4,.44-4.82,1.32-.83.85-1.52,2.69-2.07,5.51-.58,2.72-.61,4.56-.09,5.51.55.91,2.02,1.36,4.41,1.36h7.21c.49,0,.71.19.64.58l-.46,2.37c-.09.39-.38.62-.87.7-2.08.29-4.52.43-7.3.43-4.62,0-7.5-.71-8.63-2.14-1.13-1.42-1.29-4.36-.46-8.82.83-4.43,2.08-7.35,3.77-8.78,1.68-1.42,4.84-2.14,9.46-2.14Z"/>
      <path class="cls-4" d="M738.41,265.54h4.18c.46,0,.64.19.55.58l-3.81,20.31c-.06.39-.32.58-.78.58h-4.18c-.43,0-.63-.19-.6-.58l3.81-20.31c.09-.39.37-.58.83-.58ZM742.18,256.73c1.04,0,1.81.23,2.3.7.49.47.66,1.13.5,1.98-.34,1.79-1.61,2.68-3.81,2.68-1.07,0-1.85-.23-2.34-.7-.49-.47-.66-1.13-.51-1.98.31-1.79,1.59-2.68,3.86-2.68Z"/>
      <path class="cls-4" d="M752.05,260.49l4.36-.89c.28-.05.47-.03.57.06s.13.25.07.49l-1.01,5.44h4.55c.49,0,.7.19.64.58l-.5,2.45c-.03.42-.31.62-.83.62h-4.55l-2.21,11.85c-.15.85-.06,1.41.28,1.67s1.07.39,2.21.39h2.02c.24,0,.43.05.55.14.12.09.17.23.14.41l-.46,2.56c-.15.39-.44.62-.87.7-1.1.18-2.21.27-3.31.27h-1.17c-.32,0-.71-.01-1.17-.04-.46-.03-.83-.07-1.1-.14-.28-.06-.6-.15-.99-.25-.38-.1-.66-.24-.83-.41-.17-.17-.38-.37-.64-.6-.26-.23-.41-.51-.44-.83-.03-.32-.09-.69-.18-1.09s-.05-.86.14-1.38l2.48-13.24h-2.62c-.46,0-.67-.21-.64-.62l.46-2.45c.06-.39.34-.58.83-.58h2.66l.83-4.47c.09-.34.34-.54.74-.62Z"/>
      <path class="cls-4" d="M774.33,265.35c3.86,0,6.51.5,7.97,1.51s1.98,2.63,1.59,4.85l-2.57,13.51c-.03.54-.4.92-1.1,1.13-2.42.57-5.93.85-10.52.85-.98,0-1.83-.02-2.55-.06-.72-.04-1.43-.12-2.13-.23-.71-.12-1.26-.28-1.68-.49-.41-.21-.83-.47-1.24-.8-.41-.32-.67-.71-.78-1.17-.11-.45-.21-.99-.3-1.61s-.03-1.33.18-2.14c.46-2.33,1.47-3.95,3.03-4.85,1.59-.88,3.89-1.32,6.89-1.32h6.66l.37-2.02c.18-1.09-.08-1.88-.78-2.37-.71-.49-1.97-.74-3.81-.74h-7.58c-.25,0-.41-.04-.48-.12-.08-.08-.1-.25-.07-.5l.46-2.33c.03-.34.28-.54.73-.62,2.17-.34,4.75-.5,7.72-.5ZM776.21,282.86l.92-4.93h-6.34c-1.29,0-2.24.19-2.85.58-.61.39-1.01,1.06-1.19,2.02-.21,1.06-.02,1.79.57,2.17.6.39,1.79.58,3.56.58,2.14,0,3.92-.14,5.33-.43Z"/>
      <path class="cls-4" d="M801.16,265.35c2.82,0,5.21.14,7.17.43.46.08.64.31.55.7l-.46,2.37c-.06.39-.34.58-.83.58h-7.21c-2.39,0-4,.44-4.82,1.32-.83.85-1.52,2.69-2.07,5.51-.58,2.72-.61,4.56-.09,5.51.55.91,2.02,1.36,4.41,1.36h7.21c.49,0,.7.19.64.58l-.46,2.37c-.09.39-.38.62-.87.7-2.08.29-4.52.43-7.3.43-4.62,0-7.5-.71-8.63-2.14s-1.29-4.36-.46-8.82c.83-4.43,2.08-7.35,3.77-8.78s4.84-2.14,9.46-2.14Z"/>
      <path class="cls-4" d="M814.2,265.54h4.18c.46,0,.64.19.55.58l-3.81,20.31c-.06.39-.32.58-.78.58h-4.18c-.43,0-.63-.19-.6-.58l3.81-20.31c.09-.39.37-.58.83-.58ZM817.97,256.73c1.04,0,1.81.23,2.3.7s.66,1.13.51,1.98c-.34,1.79-1.61,2.68-3.81,2.68-1.07,0-1.85-.23-2.34-.7-.49-.47-.66-1.13-.5-1.98.3-1.79,1.59-2.68,3.86-2.68Z"/>
      <path class="cls-4" d="M835.42,265.35c3.55,0,6.09.44,7.62,1.32,1.13.75,1.79,1.89,1.97,3.42.18,1.53.02,3.6-.51,6.21-.8,4.4-2.07,7.33-3.81,8.78-1.68,1.42-4.82,2.14-9.42,2.14-2.36,0-4.2-.16-5.51-.49s-2.35-.89-3.1-1.71-1.11-1.93-1.08-3.34c.03-1.41.21-3.2.55-5.38.83-4.4,2.1-7.33,3.81-8.78,1.78-1.45,4.93-2.17,9.46-2.17ZM827.75,276.3c-.58,2.72-.61,4.54-.09,5.48.55.91,2.02,1.36,4.41,1.36s4-.43,4.82-1.28c.83-.91,1.52-2.76,2.07-5.55.58-2.74.6-4.57.05-5.48-.49-.93-1.95-1.4-4.36-1.4s-4,.44-4.82,1.32c-.83.85-1.52,2.71-2.07,5.55Z"/>
      <path class="cls-4" d="M862.57,265.35c1.5,0,2.74.04,3.72.12,2.3.18,3.81.66,4.55,1.44,1.26,1.24,1.53,3.79.83,7.65l-2.21,11.88c-.09.39-.38.58-.87.58h-4.13c-.43,0-.63-.19-.6-.58l2.11-11.03c.37-2.1.43-3.62.18-4.58-.09-.44-.37-.75-.83-.93-.67-.31-1.88-.47-3.63-.47h-5.28l-3.17,17.01c-.09.39-.37.58-.83.58h-4.22c-.43,0-.61-.19-.55-.58l3.72-19.84c.03-.16.08-.28.16-.37.08-.09.15-.15.23-.17.08-.03.21-.05.39-.08,2.42-.41,5.89-.62,10.43-.62Z"/>
      <path class="cls-4" d="M889.35,265.35c4.29,0,7.01.7,8.18,2.1,1.16,1.42,1.36,4.23.6,8.43l-.23,1.17c-.06.39-.21.66-.46.82-.25.16-.67.23-1.29.23h-14.51c-.31,2.02-.15,3.38.46,4.08.58.65,2,.97,4.27.97h7.81c.46,0,.66.19.6.58l-.46,2.41c-.06.36-.32.58-.78.66-2.36.29-5.12.43-8.27.43-1.84,0-3.35-.1-4.52-.31-1.18-.21-2.16-.54-2.94-.99s-1.32-1.12-1.61-2c-.29-.88-.43-1.92-.41-3.11.02-1.19.19-2.69.53-4.5.83-4.4,2.1-7.33,3.81-8.78s4.79-2.17,9.23-2.17ZM888.61,269.43c-2.11,0-3.6.36-4.46,1.09-.89.7-1.53,2.1-1.93,4.19h10.52c.37-2.1.28-3.5-.28-4.19-.55-.72-1.84-1.09-3.86-1.09Z"/>
      <path class="cls-4" d="M913.87,265.35c2.45,0,4.81.14,7.07.43.43.08.6.29.51.62l-.41,2.29c-.03.39-.31.58-.83.58h-8.41c-2.02,0-3.15.57-3.4,1.71l-.09.47c-.15,1.04.55,1.8,2.11,2.29l5.7,1.86c1.68.57,2.78,1.29,3.29,2.17.5.88.62,2.05.34,3.5l-.09.5c-.37,2.05-1.38,3.46-3.03,4.25-1.65.79-4.17,1.18-7.53,1.18-2.97,0-5.93-.12-8.87-.35-.49-.03-.69-.22-.6-.58l.46-2.41c.03-.41.31-.62.83-.62h8.91c1.59,0,2.69-.11,3.29-.33.6-.22.96-.67,1.08-1.34l.09-.39c.09-.49-.02-.91-.34-1.24-.32-.34-.94-.66-1.86-.97l-5.74-1.94c-2.85-.93-4.01-2.83-3.49-5.71l.18-.78c.34-1.89,1.39-3.23,3.17-4.02s4.33-1.18,7.67-1.18Z"/>
    </g>
  </g>
  <g id="CARMOT_copia" data-name="CARMOT copia">
    <path id="C" class="cls-4" d="M452.56,189.25h21.82v38.23c0,9.9-8.02,17.92-17.92,17.92h-27.36c-9.9,0-17.92-8.02-17.92-17.92v-99.95c0-9.9,8.02-17.92,17.92-17.92h27.36c9.9,0,17.92,8.02,17.92,17.92v35.33h-22.04v-33.98h-19.17v96.39h19.57l-.16-36.03Z"/>
    <path id="A" class="cls-4" d="M492.63,127.26v117.23h22.11v-37.57h20.15v37.57h21.72v-117.23c0-9.74-7.9-17.64-17.64-17.64h-28.7c-9.74,0-17.64,7.9-17.64,17.64ZM534.89,188.14h-20.15v-60.07h20.15v60.07Z"/>
    <path id="R" class="cls-4" d="M641.59,174.75v-45.03c0-11.1-9-20.1-20.1-20.1h-44.85v134.87h21.85v-39.46h20.15v39.46h22.96v-29.85c0-10.92-8.85-19.78-19.78-19.78h-.33c11.1,0,20.1-9,20.1-20.1ZM618.63,188.14h-20.15v-60.07h20.15v60.07Z"/>
    <polygon id="M" class="cls-4" points="718.9 109.62 701.82 164.73 684.73 109.62 659.03 109.62 659.03 244.49 680.43 244.49 680.43 148.29 693.73 194.86 701.82 194.86 709.9 194.86 723.21 148.29 723.21 244.49 744.6 244.49 744.6 109.62 718.9 109.62"/>
    <path id="O" class="cls-4" d="M811.37,109.62h-30.42c-9.54,0-17.27,7.73-17.27,17.27v100.34c0,9.54,7.73,17.27,17.27,17.27h30.42c9.54,0,17.27-7.73,17.27-17.27v-100.34c0-9.54-7.73-17.27-17.27-17.27ZM806.23,226.75h-20.15v-98.67h20.15v98.67Z"/>
    <polygon id="T" class="cls-4" points="912.11 109.62 877.27 109.62 837.62 109.62 831.84 125.12 866.31 125.37 866.31 245.3 877.27 245.3 888.22 245.3 888.22 125.37 917.88 125.12 912.11 109.62"/>
    <polygon id="GREEN" class="cls-8" points="891.23 125.34 917.88 125.12 912.11 109.62 885.37 109.62 891.14 125.12 891.23 125.34"/>
    <polygon id="RED" class="cls-5" points="900.33 125.27 917.88 125.12 912.11 109.62 894.5 109.62 900.27 125.12 900.33 125.27"/>
    <polygon id="YELLOW" class="cls-2" points="909.69 125.19 917.88 125.12 912.11 109.62 903.89 109.62 909.67 125.12 909.69 125.19"/>
  </g>
  <g id="LOGOT_copia" data-name="LOGOT copia">
    <path class="cls-4" d="M267.94,174h-20.99c-9.82-18.65-29.38-31.37-51.93-31.37s-42.1,12.72-51.93,31.37h44.06c7.73,0,14,6.27,14,14v28.17c0,6.86-5.56,12.42-12.42,12.42h-45.64c9.82,18.65,29.38,31.37,51.93,31.37s42.1-12.72,51.93-31.37h20.99l-42.03-27.29,42.03-27.29Z"/>
    <polygon class="cls-4" points="233.86 201.29 275.89 174 287.5 174 245.47 201.29 287.5 228.58 275.89 228.58 233.86 201.29"/>
    <polygon class="cls-4" points="268.3 179.97 268.3 222.02 275.33 226.82 275.33 175.17 268.3 179.97"/>
    <path class="cls-4" d="M351.8,217.41l-15.66-1.45s0-.07.01-.1c.82-8.59.85-17.07.17-25.38-.23-2.75,1.76-5.17,4.5-5.46l10.75-1.13c2.85-.3,4.9-2.91,4.48-5.75-.92-6.26-2.19-12.41-3.81-18.44-.74-2.77-3.65-4.35-6.38-3.51l-10.46,3.24c-2.61.81-5.38-.61-6.27-3.2-2.23-6.49-4.93-12.77-8.04-18.82-1.26-2.45-.35-5.46,2.07-6.77l9.65-5.24c2.52-1.37,3.41-4.57,1.94-7.03-3.22-5.39-6.75-10.59-10.57-15.57-1.74-2.27-5.04-2.63-7.24-.8l-8.55,7.09c-2.11,1.75-5.21,1.49-7.03-.56-4.52-5.13-9.41-9.94-14.63-14.38-2.1-1.78-2.4-4.9-.67-7.04l7.02-8.66c1.8-2.23,1.41-5.52-.89-7.23-5.02-3.74-10.26-7.21-15.72-10.37-2.48-1.44-5.66-.51-7,2.03l-5.24,9.92c-1.28,2.43-4.25,3.38-6.71,2.16-6.09-2.99-12.43-5.57-19-7.68-2.62-.84-4.1-3.61-3.31-6.25l3.19-10.75c.82-2.75-.82-5.65-3.6-6.34-6.04-1.52-12.23-2.7-18.54-3.53-2.81-.37-5.36,1.68-5.63,4.5l-1.51,16.24c-.23-.02-.45-.05-.68-.07-8.36-.8-16.63-.85-24.72-.22-2.74.21-5.15-1.77-5.44-4.51l-1.17-11.17c-.3-2.85-2.91-4.9-5.75-4.48-6.26.91-12.42,2.19-18.44,3.8-2.77.74-4.36,3.65-3.51,6.38l3.31,10.71c.81,2.62-.62,5.4-3.22,6.28-6.51,2.2-12.82,4.87-18.89,7.96-2.45,1.25-5.44.33-6.75-2.08l-5.32-9.79c-1.37-2.52-4.57-3.41-7.03-1.94-5.39,3.23-10.59,6.75-15.57,10.57-2.27,1.74-2.63,5.04-.8,7.24l7.08,8.54c1.76,2.12,1.49,5.24-.58,7.04-5.16,4.5-9.99,9.37-14.46,14.57-1.79,2.08-4.89,2.38-7.02.65l-8.56-6.94c-2.23-1.8-5.52-1.41-7.23.89-3.74,5.02-7.21,10.26-10.37,15.72-1.44,2.48-.51,5.66,2.03,7l9.65,5.09c2.43,1.28,3.38,4.27,2.16,6.73-3.03,6.09-5.64,12.45-7.78,19.03-.85,2.61-3.61,4.07-6.24,3.29l-10.37-3.07c-2.75-.82-5.65.82-6.34,3.6-1.51,6.02-2.69,12.19-3.52,18.49-.37,2.84,1.7,5.42,4.55,5.69l15.67,1.46c-.04.39-.09.79-.13,1.18-.79,8.23-.85,16.37-.25,24.35.21,2.74-1.78,5.14-4.51,5.43l-10.57,1.11c-2.85.3-4.9,2.91-4.48,5.75.91,6.26,2.19,12.42,3.8,18.44.74,2.77,3.65,4.36,6.38,3.51l10.05-3.11c2.63-.81,5.41.63,6.28,3.23,2.21,6.56,4.88,12.91,7.99,19.03,1.24,2.45.33,5.43-2.08,6.74l-9.16,4.97c-2.52,1.37-3.41,4.57-1.94,7.03,3.23,5.39,6.76,10.59,10.57,15.57,1.74,2.27,5.04,2.63,7.24.8l7.97-6.61c2.12-1.76,5.23-1.49,7.04.58,4.53,5.19,9.43,10.06,14.68,14.55,2.08,1.78,2.38,4.89.65,7.02l-6.48,8c-1.8,2.23-1.41,5.52.89,7.23,5.02,3.74,10.26,7.21,15.72,10.36,2.48,1.44,5.66.51,7-2.03l4.78-9.06c1.28-2.43,4.26-3.38,6.72-2.16,6.14,3.04,12.54,5.64,19.16,7.78,2.62.84,4.09,3.61,3.31,6.24l-2.89,9.77c-.82,2.75.82,5.64,3.6,6.34,6.02,1.51,12.19,2.69,18.49,3.52,2.84.37,5.42-1.7,5.69-4.55l1.4-15.14c.21.02.43.05.64.07,8.45.81,16.79.85,24.96.2,2.74-.22,5.16,1.77,5.45,4.5l1.07,10.15c.3,2.85,2.91,4.9,5.75,4.48,6.26-.91,12.42-2.19,18.44-3.8,2.77-.74,4.35-3.65,3.51-6.38l-3.04-9.8c-.81-2.62.62-5.39,3.21-6.28,6.56-2.24,12.92-4.95,19.03-8.1,2.45-1.26,5.45-.35,6.77,2.07l4.9,9.02c1.37,2.52,4.57,3.41,7.03,1.94,5.39-3.23,10.59-6.76,15.57-10.57,2.27-1.74,2.63-5.04.8-7.24l-6.62-7.98c-1.75-2.11-1.49-5.21.56-7.03,5.16-4.55,10-9.48,14.46-14.75,1.78-2.1,4.9-2.41,7.04-.68l8.1,6.55c2.23,1.8,5.52,1.4,7.23-.89,3.74-5.02,7.2-10.26,10.36-15.72,1.44-2.48.51-5.66-2.03-7l-9.33-4.92c-2.42-1.28-3.38-4.24-2.17-6.7,3-6.13,5.57-12.52,7.68-19.13.84-2.63,3.61-4.11,6.25-3.33l10.15,3c2.75.81,5.64-.82,6.34-3.6,1.51-6.02,2.69-12.19,3.52-18.49.37-2.84-1.7-5.42-4.56-5.69ZM194.96,308.79c-59.08,0-106.98-47.9-106.98-106.98s47.9-106.98,106.98-106.98,106.98,47.9,106.98,106.98-47.9,106.98-106.98,106.98Z"/>
    <path class="cls-6" d="M195.18,271.2c-20.84,0-39.53-9.15-52.31-23.64l-27.54,5.88c16.92,26.04,46.26,43.26,79.62,43.26,38.62,0,71.85-23.08,86.67-56.19h-28.64c-12.54,18.52-33.75,30.69-57.8,30.69Z"/>
    <path class="cls-3" d="M151.41,147.15l-7.18-25.55c-26.55,16.82-44.17,46.46-44.17,80.21,0,19.05,5.61,36.78,15.27,51.64l27.54-5.88h0c-10.85-12.29-17.44-28.43-17.44-46.11,0-21.94,10.14-41.51,25.98-54.3Z"/>
    <path class="cls-7" d="M194.96,106.91c-18.66,0-36.05,5.39-50.72,14.69l7.18,25.55c11.97-9.66,27.19-15.46,43.77-15.46,12.06,0,23.4,3.07,33.3,8.47l19.97-16.73c-15.23-10.42-33.65-16.52-53.5-16.52Z"/>
    <path class="cls-1" d="M248.46,123.43l-19.97,16.73h0c9.31,5.07,17.34,12.2,23.47,20.78h28.67c-7.25-15.17-18.41-28.1-32.17-37.51h0Z"/>
  </g>
</svg>